<?xml version="1.0" encoding="UTF-8"?>
<svg xmlns="http://www.w3.org/2000/svg" xmlns:xlink="http://www.w3.org/1999/xlink" viewBox="0 0 240 240" width="240px" height="240px">
<g id="surface177124444">
<path style=" stroke:none;fill-rule:nonzero;fill:rgb(100%,100%,100%);fill-opacity:1;" d="M 165 120 C 165 144.851562 144.851562 165 120 165 C 95.148438 165 75 144.851562 75 120 C 75 95.148438 95.148438 75 120 75 C 144.851562 75 165 95.148438 165 120 Z M 165 120 "/>
<path style=" stroke:none;fill-rule:nonzero;fill:rgb(100%,100%,100%);fill-opacity:1;" d="M 205 55 C 205 66.046875 196.046875 75 185 75 C 173.953125 75 165 66.046875 165 55 C 165 43.953125 173.953125 35 185 35 C 196.046875 35 205 43.953125 205 55 Z M 205 55 "/>
<path style=" stroke:none;fill-rule:nonzero;fill:rgb(100%,100%,100%);fill-opacity:1;" d="M 208.53125 73.574219 C 204.320312 78.894531 198.359375 82.753906 191.503906 84.269531 C 196.894531 95.035156 200 107.144531 200 120 C 200 164.183594 164.183594 200 120 200 C 75.816406 200 40 164.183594 40 120 C 40 75.816406 75.816406 40 120 40 C 132.855469 40 144.964844 43.105469 155.726562 48.496094 C 157.238281 41.640625 161.101562 35.675781 166.421875 31.46875 C 152.546875 24.175781 136.769531 20 120 20 C 64.769531 20 20 64.769531 20 120 C 20 175.230469 64.769531 220 120 220 C 175.230469 220 220 175.230469 220 120 C 220 103.230469 215.824219 87.453125 208.53125 73.574219 Z M 208.53125 73.574219 "/>
</g>
</svg>
