<svg version="1.1" xmlns="http://www.w3.org/2000/svg" xmlns:xlink="http://www.w3.org/1999/xlink" viewBox="0 0 226 226"><g fill="none" fill-rule="nonzero" stroke="none" stroke-width="1" stroke-linecap="butt" stroke-linejoin="miter" stroke-miterlimit="10" stroke-dasharray="" stroke-dashoffset="0" font-family="none" font-weight="none" font-size="none" text-anchor="none" style="mix-blend-mode: normal"><path d="M0,226v-226h226v226z" fill="none"></path><g><path d="M113,61.48142v0c-28.45717,0.02825 -51.49033,23.07083 -51.51858,51.50917c0.02825,28.43833 23.06142,51.48092 51.50917,51.50917c28.43833,-0.02825 51.48092,-23.07083 51.49975,-51.50917c-0.03767,-28.42892 -23.07083,-51.46208 -51.49033,-51.50917z" fill="#999999"></path><path d="M186.91142,66.06733c12.96675,0 23.48517,-10.51842 23.48517,-23.48517c0,-12.96675 -10.51842,-23.48517 -23.48517,-23.48517c-12.96675,0 -23.48517,10.51842 -23.48517,23.48517c0,12.96675 10.52783,23.48517 23.48517,23.48517z" fill="#999999"></path><path d="M113,226c62.32892,0 113,-50.67108 113,-113c0,-16.29083 -3.39942,-32.04492 -10.15117,-46.82908l-0.00942,-0.00942l-0.9605,-2.15642l-1.60083,1.77033c-3.83258,4.36933 -8.73867,7.73108 -14.16267,9.75567l-1.49725,0.57442l0.6215,1.45958c4.4635,10.43367 7.0625,22.56233 7.0625,35.30308v0.09417c0,50.89708 -41.39567,92.33983 -92.33042,92.33983c-50.93475,0 -92.30217,-41.40508 -92.30217,-92.30217c0,-50.89708 41.45217,-92.33983 92.33983,-92.33983c13.80483,0 27.14825,3.00392 39.55,8.91758l1.45017,0.69683l0.61208,-1.45958c2.39183,-5.4805 5.9325,-10.07583 10.35833,-13.62592l0.06592,-0.0565l1.84567,-1.49725l-2.11875,-1.10175c-14.95367,-7.90058 -32.69467,-12.53358 -51.49975,-12.53358h-0.27308c-62.32892,0 -113,50.67108 -113,113c0,62.32892 50.67108,113 113,113z" fill="#999999"></path><path d="M113,61.48142v0c-28.45717,0.02825 -51.49033,23.07083 -51.51858,51.50917c0.01883,14.916 6.35625,28.34417 16.48858,37.75142l72.75317,-72.75317c-9.39783,-10.13233 -22.81658,-16.47917 -37.72317,-16.50742z" fill="#b40001"></path><path d="M186.91142,19.097c-12.96675,0 -23.48517,10.51842 -23.48517,23.48517c0,6.28092 2.46717,11.99683 6.4975,16.20608l33.20317,-33.20317c-4.21867,-4.0115 -9.92517,-6.48808 -16.2155,-6.48808z" fill="#b40001"></path><path d="M113.27308,0h-0.27308c-62.32892,0 -113,50.67108 -113,113c0,31.85658 13.23983,60.66217 34.49325,81.21875l14.61467,-14.61467c-17.53383,-16.80875 -28.45717,-40.46342 -28.45717,-66.6135c0,-50.89708 41.45217,-92.33983 92.33983,-92.33983c13.80483,0 27.14825,3.00392 39.55,8.91758l1.45017,0.69683l0.63092,-1.45017c2.39183,-5.4805 5.9325,-10.07583 10.35833,-13.62592l0.06592,-0.0565l1.84567,-1.49725l-2.11875,-1.10175c-14.95367,-7.90058 -32.69467,-12.53358 -51.49975,-12.53358z" fill="#b40001"></path></g></g></svg>